<svg xmlns="http://www.w3.org/2000/svg" viewBox="0 0 24 24" width="48" height="48">
  <defs>
    <linearGradient id="fiberGrad" x1="0%" y1="0%" x2="100%" y2="100%">
      <stop offset="0%" style="stop-color:#06D6A0;stop-opacity:1" />
      <stop offset="100%" style="stop-color:#FFD166;stop-opacity:1" />
    </linearGradient>
  </defs>
  <path fill="url(#fiberGrad)" d="M12,2C6.48,2,2,6.48,2,12s4.48,10,10,10s10-4.48,10-10S17.52,2,12,2z M12,20c-4.42,0-8-3.58-8-8 s3.58-8,8-8s8,3.58,8,8S16.42,20,12,20z"/>
  <path fill="url(#fiberGrad)" d="M12,12m-3,0a3,3 0,1 1,6 0a3,3 0,1 1,-6 0"/>
  <path fill="url(#fiberGrad)" d="M6.5,17.5l7-7"/>
  <path fill="url(#fiberGrad)" d="M10.5,6.5l7,7"/>
</svg>
