<svg xmlns="http://www.w3.org/2000/svg" viewBox="0 0 24 24" width="48" height="48">
  <defs>
    <linearGradient id="mobileGrad" x1="0%" y1="0%" x2="100%" y2="100%">
      <stop offset="0%" style="stop-color:#FFD166;stop-opacity:1" />
      <stop offset="100%" style="stop-color:#EF476F;stop-opacity:1" />
    </linearGradient>
  </defs>
  <path fill="url(#mobileGrad)" d="M17,1.01L7,1C5.9,1,5,1.9,5,3v18c0,1.1,0.9,2,2,2h10c1.1,0,2-0.9,2-2V3C19,1.9,18.1,1.01,17,1.01z M17,19H7V5h10V19z"/>
  <path fill="url(#mobileGrad)" d="M12,22c0.83,0,1.5-0.67,1.5-1.5S12.83,19,12,19s-1.5,0.67-1.5,1.5S11.17,22,12,22z"/>
</svg>
