<svg xmlns="http://www.w3.org/2000/svg" viewBox="0 0 24 24" width="24" height="24">
  <defs>
    <linearGradient id="netGrad" x1="0%" y1="0%" x2="100%" y2="100%">
      <stop offset="0%" style="stop-color:#EF476F;stop-opacity:1" />
      <stop offset="100%" style="stop-color:#FFD166;stop-opacity:1" />
    </linearGradient>
  </defs>
  <path fill="url(#netGrad)" d="M12,2C6.48,2,2,6.48,2,12s4.48,10,10,10s10-4.48,10-10S17.52,2,12,2z M12,20c-4.42,0-8-3.58-8-8 s3.58-8,8-8s8,3.58,8,8S16.42,20,12,20z"/>
  <path fill="url(#netGrad)" d="M12,8c-2.21,0-4,1.79-4,4s1.79,4,4,4s4-1.79,4-4S14.21,8,12,8z M12,14c-1.1,0-2-0.9-2-2s0.9-2,2-2 s2,0.9,2,2S13.1,14,12,14z"/>
  <path fill="url(#netGrad)" d="M6.34,17.66c0.88,0.88,1.9,1.55,3.02,2V17.5c-0.51-0.22-0.99-0.49-1.42-0.83L6.34,17.66z"/>
  <path fill="url(#netGrad)" d="M17.66,6.34c-0.88-0.88-1.9-1.55-3.02-2v2.16c0.51,0.22,0.99,0.49,1.42,0.83L17.66,6.34z"/>
  <path fill="url(#netGrad)" d="M17.66,17.66l-1.59-1.59c-0.43,0.34-0.91,0.61-1.42,0.83v2.16C15.76,19.21,16.78,18.54,17.66,17.66z"/>
  <path fill="url(#netGrad)" d="M6.34,6.34l1.59,1.59c0.43-0.34,0.91-0.61,1.42-0.83V4.94C8.24,4.79,7.22,5.46,6.34,6.34z"/>
</svg>
