<svg xmlns="http://www.w3.org/2000/svg" viewBox="0 0 24 24" width="24" height="24">
  <defs>
    <linearGradient id="speedGrad" x1="0%" y1="0%" x2="100%" y2="100%">
      <stop offset="0%" style="stop-color:#06D6A0;stop-opacity:1" />
      <stop offset="100%" style="stop-color:#2B2D42;stop-opacity:1" />
    </linearGradient>
  </defs>
  <path fill="url(#speedGrad)" d="M12,2C6.48,2,2,6.48,2,12s4.48,10,10,10s10-4.48,10-10S17.52,2,12,2z M12,20c-4.42,0-8-3.58-8-8 s3.58-8,8-8s8,3.58,8,8S16.42,20,12,20z"/>
  <path fill="url(#speedGrad)" d="M16.5,12c0,0.28-0.22,0.5-0.5,0.5h-4c-0.28,0-0.5-0.22-0.5-0.5V8c0-0.28,0.22-0.5,0.5-0.5 s0.5,0.22,0.5,0.5v3.5H16C16.28,11.5,16.5,11.72,16.5,12z"/>
  <path fill="url(#speedGrad)" d="M12,6c-0.55,0-1,0.45-1,1s0.45,1,1,1s1-0.45,1-1S12.55,6,12,6z"/>
  <path fill="url(#speedGrad)" d="M12,16c-0.55,0-1,0.45-1,1s0.45,1,1,1s1-0.45,1-1S12.55,16,12,16z"/>
  <path fill="url(#speedGrad)" d="M6,12c0,0.55,0.45,1,1,1s1-0.45,1-1s-0.45-1-1-1S6,11.45,6,12z"/>
  <path fill="url(#speedGrad)" d="M16,12c0,0.55,0.45,1,1,1s1-0.45,1-1s-0.45-1-1-1S16,11.45,16,12z"/>
</svg>
